<?xml version="1.0" encoding="UTF-8" standalone="no"?>
<!-- Created with Inkscape (http://www.inkscape.org/) -->

<svg
   width="1920"
   height="1080"
   viewBox="0 0 507.99999 285.75001"
   version="1.1"
   id="svg3487"
   inkscape:version="1.1.2 (0a00cf5339, 2022-02-04)"
   sodipodi:docname="0-foreground.svg"
   xmlns:inkscape="http://www.inkscape.org/namespaces/inkscape"
   xmlns:sodipodi="http://sodipodi.sourceforge.net/DTD/sodipodi-0.dtd"
   xmlns="http://www.w3.org/2000/svg"
   xmlns:svg="http://www.w3.org/2000/svg">
  <sodipodi:namedview
     id="namedview3489"
     pagecolor="#ffffff"
     bordercolor="#666666"
     borderopacity="1.0"
     inkscape:pageshadow="2"
     inkscape:pageopacity="0.0"
     inkscape:pagecheckerboard="0"
     inkscape:document-units="px"
     showgrid="false"
     units="px"
     inkscape:zoom="0.41768581"
     inkscape:cx="687.11935"
     inkscape:cy="302.85923"
     inkscape:window-width="2490"
     inkscape:window-height="1376"
     inkscape:window-x="70"
     inkscape:window-y="27"
     inkscape:window-maximized="1"
     inkscape:current-layer="layer1" />
  <defs
     id="defs3484" />
  <g
     inkscape:label="Layer 1"
     inkscape:groupmode="layer"
     id="layer1">
    <path
       style="fill:#0085ac;stroke-width:0.264583"
       d="M 6.9444443e-6,245.36461 V 204.97923 L 1.4497569,205.14962 c 1.62601,0.1911 1.54014,0.29671 1.83163,-2.25283 0.0773,-0.67609 0.457,-1.92624 0.84379,-2.77813 0.95224,-2.09725 0.94224,-5.28674 -0.0262,-8.35236 -0.72214,-2.28598 -0.84146,-3.76838 -0.32883,-4.08521 0.55777,-0.34471 1.75285,-0.0857 3.95687,0.85769 1.1602,0.49659 2.3788601,0.90289 2.7081301,0.90289 0.32927,0 1.06286,-0.35853 1.6302,-0.79673 1.87642,-1.44931 3.37775,-2.37827 3.84362,-2.37827 0.53465,0 0.59683,0.17274 1.15344,3.20426 0.65533,3.56924 0.57493,5.24336 -0.41791,8.70199 -0.75821,2.64129 -0.86915,3.40922 -0.84089,5.82083 0.0179,1.52797 0.19012,3.3588 0.3827,4.06852 0.32472,1.19669 0.4444,1.32723 1.64808,1.79769 0.84268,0.32936 1.38838,0.41685 1.55579,0.24945 0.14396,-0.14397 0.28082,-2.34028 0.30986,-4.97269 0.0472,-4.27403 0.10822,-4.83853 0.65307,-6.03776 1.05334,-2.31843 1.36634,-3.63712 1.52781,-6.43679 0.15071,-2.61318 0.18191,-2.72618 0.71386,-2.58507 0.69614,0.18465 3.73432,0.80086 5.90913,1.1985 1.91313,0.34979 2.20048,0.24638 4.66699,-1.67951 1.77986,-1.38975 2.54785,-1.5554 2.54785,-0.54956 0,1.05547 -0.77617,5.9382 -1.21048,7.61491 -0.33097,1.27775 -0.36597,2.80987 -0.21143,9.25512 l 0.18521,7.72389 1.45976,1.98967 c 0.80287,1.09432 2.24532,2.88654 3.20545,3.9827 1.98025,2.26084 4.43191,5.66882 5.26965,7.32521 0.83979,1.66042 1.34149,4.08526 1.53064,7.39788 0.16609,2.90884 0.18027,2.96055 0.85702,3.12444 1.30616,0.31633 3.51575,1.85905 4.41813,3.08472 1.28042,1.73914 2.02809,3.56064 3.71341,9.04671 1.7665,5.75031 2.61072,7.44921 4.78575,9.63077 1.36582,1.36992 2.24355,1.94171 5.15937,3.36106 4.5105,2.19557 8.6251,3.77555 13.82911,5.31024 10.57033,3.11727 16.7117,5.81126 23.317643,10.22856 3.76301,2.51629 4.26512,2.70007 6.84806,2.50658 1.16417,-0.0872 5.58081,-0.39838 9.81477,-0.69149 4.23396,-0.29313 8.8774,-0.65556 10.31875,-0.80539 1.44136,-0.14986 4.10893,-0.27331 5.92794,-0.27435 3.82113,-0.003 6.11007,0.47795 7.18414,1.50696 0.56838,0.54457 2.34086,4.48207 2.34086,5.20015 0,0.10184 -32.50406,0.18513 -72.231253,0.18513 H -3.0555558e-6 Z M 286.10646,285.28698 c 2.44909,-8.89235 1.79842,-7.84127 5.10389,-8.24508 1.58681,-0.19386 7.95266,-1.82472 11.86987,-3.04093 1.30551,-0.40532 1.5798,-0.92782 2.18657,-4.16513 l 0.46376,-2.47438 1.05609,-0.0688 c 0.58084,-0.0378 2.36577,-0.23923 3.9665,-0.44751 1.60073,-0.20831 3.91935,-0.45575 5.15249,-0.54986 2.21838,-0.16934 10.41474,-1.57226 10.88552,-1.86322 0.42254,-0.26114 1.47354,-2.54402 3.41865,-7.42572 2.02512,-5.08247 4.21085,-9.66796 5.48876,-11.51497 0.87921,-1.27076 6.43853,-6.76946 8.92124,-8.82396 0.87313,-0.72253 3.07578,-2.58494 4.8948,-4.1387 3.65302,-3.12033 9.01662,-7.35471 9.32656,-7.36299 0.10914,-0.003 0.19844,0.15194 0.19844,0.34412 0,0.43105 -1.6047,4.1465 -3.39154,7.85267 -2.74693,5.69745 -4.63513,12.91678 -4.17325,15.95573 0.28194,1.85482 2.61361,4.50359 5.12721,5.82444 1.01941,0.5357 2.13375,0.97217 2.47626,0.96993 0.34253,-0.002 1.69148,-0.33524 2.99767,-0.74001 2.73164,-0.84649 2.40893,-0.30216 3.32343,-5.60592 1.37573,-7.97865 3.3927,-15.03194 5.6746,-19.84375 2.90785,-6.13184 4.36978,-10.24136 4.36978,-12.28371 0,-1.45403 0.26559,-2.79754 0.55303,-2.79754 0.53298,0 2.08751,1.69862 2.37297,2.59291 0.60979,1.91041 2.61536,6.64788 3.95835,9.35024 1.45318,2.92409 2.96694,5.27146 5.85494,9.07918 1.15292,1.52009 2.10013,3.13213 2.6429,4.49792 1.63449,4.11284 4.12385,8.73144 6.18424,11.47385 2.16776,2.88531 2.66208,3.3289 4.02672,3.61332 1.15953,0.24169 3.71726,-0.31479 4.01124,-0.8727 0.43556,-0.82663 1.07296,-4.3971 1.35461,-7.58785 0.71552,-8.10607 1.87659,-14.02542 3.4906,-17.79566 l 0.87677,-2.04809 4.76026,-0.45456 c 4.25783,-0.4066 7.56388,-0.42481 9.34354,-0.0515 0.76867,0.16125 1.47701,1.68892 2.02671,4.37097 0.91692,4.4737 2.51079,9.9263 3.64736,12.47744 0.60481,1.35761 0.9566,1.83019 1.45564,1.95544 0.89072,0.22355 4.42399,-0.0516 9.05679,-0.70532 2.11005,-0.29774 5.86052,-0.6534 8.33437,-0.79036 5.35496,-0.29645 7.42755,-0.61444 8.14668,-1.24992 0.96216,-0.85022 2.5223,-4.59893 4.71072,-11.31886 4.11472,-12.63497 6.39758,-18.04502 10.55048,-25.00313 1.66391,-2.78787 2.54492,-3.95711 4.01375,-5.32699 l 1.88193,-1.75511 3.2076,-0.13031 c 1.99951,-0.0812 5.15088,-0.48459 8.36723,-1.07096 4.53964,-0.82762 15.50967,-2.29996 17.13643,-2.29996 h 0.59039 V 240.77083 285.75 H 396.98947 c -105.5965,0 -111.00432,-0.0225 -110.88301,-0.46302 z M 6.9444443e-6,46.583181 V 1.0937499e-6 H 34.153487 68.306967 L 67.526507,0.99219109 c -1.42756,1.81483001 -8.80558,12.81645991 -9.45638,14.10073991 -0.35238,0.69538 -0.87157,2.09749 -1.15375,3.1158 -0.50436,1.82005 -1.84888,4.24748 -2.83733,5.12261 -0.27637,0.24468 -2.34761,1.29479 -4.60274,2.33357 -2.25515,1.03878 -4.7551,2.25633 -5.55547,2.70566 -3.42638,1.92361 -7.12542,4.94465 -8.21705,6.71095 -0.65935,1.06684 -0.51499,1.75187 0.6645,3.15321 l 0.88872,1.0559 -1.47209,2.88116 c -2.13778,4.18405 -4.65178,7.45805 -12.25669,15.96197 -1.82984,2.04616 -4.73226,5.53521 -6.44982,7.75344 -1.71756,2.21824 -4.16929,5.13163 -5.44829,6.4742 -2.3759901,2.49409 -3.6460501,4.55632 -4.6009301,7.47068 -0.48318,1.47469 -0.4699,1.53004 0.7292,3.03858 0.66373,0.835 0.75898,1.1438 0.63589,2.0615 -0.26474,1.97377 -3.8163,5.74256 -7.0913,7.52503 L 6.9444444e-6,93.166361 Z M 505.57788,82.950171 c -6.63927,-2.90442 -20.7282,-6.82839 -28.97655,-8.07038 l -2.16226,-0.32558 -1.19928,-3.60887 c -0.65958,-1.98489 -1.34188,-4.50185 -1.51619,-5.59326 -0.40124,-2.51224 -1.22563,-4.16743 -2.96339,-5.94976 -1.29341,-1.32658 -1.55942,-1.46642 -4.54874,-2.39117 -1.74625,-0.5402 -5.25859,-1.75565 -7.80521,-2.701 -9.54556,-3.54349 -9.89489,-3.83713 -11.10893,-9.33791 -0.30424,-1.37864 -1.03531,-4.09597 -1.62454,-6.03852 -0.99391,-3.27658 -1.06939,-3.74704 -1.04423,-6.50783 0.0238,-2.61475 -0.0381,-3.05881 -0.51009,-3.65888 -0.94729,-1.20426 -3.57111,-2.73818 -11.46495,-6.70256 -8.4722,-4.25483 -11.37867,-5.85382 -12.45703,-6.85322 -0.81243,-0.75294 -0.76539,-0.74383 -2.0293,-0.39273 -1.31776,0.36606 -2.77533,1.91248 -3.86364,4.09921 -0.50696,1.01865 -1.47349,2.82609 -2.14786,4.01654 l -1.22608,2.16446 -4.90283,1.22373 c -7.73054,1.92952 -23.42079,6.17818 -25.00524,6.77099 -0.79169,0.29621 -1.68326,0.74019 -1.98131,0.98663 -0.83068,0.68687 -1.55324,3.13904 -1.73709,5.89531 -0.0914,1.36964 -0.33523,3.77427 -0.54192,5.34362 -0.20667,1.56936 -0.37579,3.67256 -0.37579,4.67378 v 1.82042 l -1.91823,0.14542 c -1.05503,0.08 -4.59714,0.33475 -7.87135,0.56615 -5.77893,0.40842 -11.96325,1.04707 -22.88646,2.3635 -2.91042,0.35075 -6.64906,0.77657 -8.30808,0.94627 -3.36616,0.34432 -10.69173,0.44173 -11.58467,0.15405 -0.66567,-0.21446 -1.27307,-1.84347 -1.54004,-4.13025 -0.0935,-0.80036 -0.4586,-2.42442 -0.81145,-3.60903 -0.50091,-1.68163 -0.89694,-2.43787 -1.80649,-3.44951 -2.08685,-2.32109 -4.14634,-3.10905 -10.54751,-4.03549 -3.74992,-0.54273 -4.70107,-0.86431 -5.65362,-1.91156 -1.07897,-1.1862 -1.4651,-2.36384 -1.71111,-5.21869 -0.50438,-5.85334 -0.74406,-7.71677 -1.08376,-8.42552 -0.90303,-1.88411 -6.83527,-4.66114 -15.68717,-7.34358 -3.19948,-0.96956 -7.4262,-2.36175 -9.39271,-3.09375 -4.22275,-1.57186 -8.93943,-3.07138 -10.39103,-3.30349 -0.71777,-0.11478 -1.09957,-0.33656 -1.24533,-0.72339 -0.30406,-0.8069499 -2.08287,-8.2931099 -2.2858,-9.6198399 L 259.48863,1.0937501e-6 H 383.74432 508.00001 V 41.936461 c 0,23.06505 0.11929,41.907313 0.0102,41.897203 -0.10914,-0.0101 -1.31838,-0.396203 -2.43228,-0.883493 z"
       id="path3569"
       sodipodi:nodetypes="ccssssssssssssssscsssssssscsssssssssssssscssscccssscssssssssssssscsssssssssssssscssssssssssscssscccscccccsscsscsccssssssssccsscsssssssssssssscsssssscssssssssssssssssscccsss" />
  </g>
</svg>
