<?xml version="1.0" encoding="UTF-8" standalone="no"?>
<!-- Created with Inkscape (http://www.inkscape.org/) -->

<svg
   width="3423.0017"
   height="2442.5522"
   viewBox="0 0 905.66918 646.25864"
   version="1.1"
   id="svg3487"
   inkscape:version="1.1.2 (0a00cf5339, 2022-02-04)"
   sodipodi:docname="0-foreground.svg"
   inkscape:export-filename="0-foreground.svg"
   inkscape:export-xdpi="96"
   inkscape:export-ydpi="96"
   xmlns:inkscape="http://www.inkscape.org/namespaces/inkscape"
   xmlns:sodipodi="http://sodipodi.sourceforge.net/DTD/sodipodi-0.dtd"
   xmlns="http://www.w3.org/2000/svg"
   xmlns:svg="http://www.w3.org/2000/svg">
  <sodipodi:namedview
     id="namedview3489"
     pagecolor="#ffffff"
     bordercolor="#666666"
     borderopacity="1.0"
     inkscape:pageshadow="2"
     inkscape:pageopacity="0.0"
     inkscape:pagecheckerboard="0"
     inkscape:document-units="px"
     showgrid="false"
     units="px"
     inkscape:zoom="0.41768581"
     inkscape:cx="687.11935"
     inkscape:cy="302.85923"
     inkscape:window-width="2490"
     inkscape:window-height="1376"
     inkscape:window-x="70"
     inkscape:window-y="27"
     inkscape:window-maximized="1"
     inkscape:current-layer="layer1"
     inkscape:showpageshadow="2"
     inkscape:deskcolor="#d1d1d1" />
  <defs
     id="defs3484" />
  <g
     inkscape:label="Layer 1"
     inkscape:groupmode="layer"
     id="layer1"
     transform="translate(199.53719,180.78251)">
    <g
       id="g2"
       inkscape:export-filename="0-foreground.svg"
       inkscape:export-xdpi="96"
       inkscape:export-ydpi="96"
       transform="translate(-1.3229167,0.84395)">
      <path
         style="fill:#0085ac;stroke-width:0.264583"
         d="m 6.9444443e-6,245.36461 c 0,-13.46179 0,-26.92359 0,-40.38538 C 10.499817,203.87577 -3.5528659,181.02547 12.065347,188.64494 c 11.037947,-10.33582 -0.08269,33.94923 7.63469,16.49178 -0.345195,-11.60596 2.625739,-16.45413 13.47086,-15.54063 6.116125,2.45947 -4.800365,23.44233 5.97636,30.01673 11.374037,14.76808 11.996438,38.82068 32.388459,45.87374 20.752565,5.40839 37.841154,20.59652 60.296194,13.45257 14.29115,-2.58736 15.38834,11.66108 0.25111,6.72907 C 88.055477,285.79972 44.027672,285.73378 -3.0555558e-6,285.75 2.7777757e-7,272.2882 3.6111109e-6,258.82641 6.9444443e-6,245.36461 Z M 286.10646,285.28698 c -0.50069,-13.45515 19.79287,-6.38658 20.68018,-17.99432 25.14003,5.68357 23.16654,-22.22728 39.92585,-32.38288 7.68545,-7.76671 16.83091,-13.67993 7.94864,0.64948 -12.88278,16.79952 15.27993,30.16686 12.53662,5.69124 4.35321,-10.49806 9.08172,-38.68808 15.13036,-14.46566 5.97333,11.15994 23.78796,45.25594 24.69495,14.53359 -4.2692,-20.07274 25.69183,-19.94757 22.60449,-0.22802 11.49716,11.19256 36.62092,1.38847 35.42506,-17.9709 3.76004,-16.30044 14.32714,-28.84707 32.20868,-26.11929 13.85482,-6.6618 10.63654,6.31433 10.73872,15.13812 0,24.53722 0,49.07444 0,73.61166 -73.96115,-0.2137 -147.95768,0.50825 -221.89355,-0.46302 z M 6.9444443e-6,46.583181 c 0,-15.527727 0,-31.055453 0,-46.5831799062501 C 22.592754,0.34502024 45.159931,-0.23919728 67.698929,-1.8474995 63.583308,15.613444 49.840413,25.956234 35.703787,35.081521 39.081653,49.356097 18.122007,60.130882 11.630117,72.361401 6.9127303,76.102572 7.0509014,97.0502 6.9444444e-6,90.831123 c 0,-14.749314 -10e-14,-29.498628 -10e-14,-44.247942 z M 505.57788,82.950171 C 491.03844,75.71651 469.65349,80.429377 468.76021,59.402321 453.22924,55.696447 440.26397,46.728728 442.11847,28.767011 428.35449,19.237113 414.96353,9.4287297 405.53102,25.946988 c -17.03979,1.883385 -34.31638,7.795646 -32.30987,25.954466 -16.59568,-2.263685 -41.45338,11.016 -52.94455,-0.04312 -1.35737,-15.666774 -26.90888,-6.85933 -21.61394,-26.6498 C 288.25965,14.100784 256.354,18.677644 260.65625,1.0937501e-6 c 82.44792,0 164.89584,0 247.34376,0 C 507.96794,27.944525 508.05966,55.889703 508.01021,83.833664 l -2.43228,-0.883493 z"
         id="path3569"
         inkscape:export-filename=".\path3569.svg"
         inkscape:export-xdpi="96"
         inkscape:export-ydpi="96" />
      <path
         id="rect1"
         style="fill:#0085ac;fill-opacity:1;stroke-width:0.268395"
         d="M -2.3734614,-181.62645 V 2.9934187 H 66.655125 c 0,0 3.947665,-16.3672607 69.242175,-8.1837622 65.29451,8.183499 118.41268,1.3095729 118.41268,1.3095729 0,0 5.23802,-1.6366485 5.54654,6.8741893 h 251.1369 V -181.62645 Z" />
      <path
         id="rect1-6"
         style="fill:#0085ac;fill-opacity:1;stroke-width:0.262954"
         d="M 0,285.30197 V 464.38303 H 508 V 285.30197 H 286.08538 c -0.11626,0.0889 -22.23589,16.95978 -49.68017,7.59178 -27.51663,-9.3927 -42.73023,2.77813 -65.21979,8.20209 -22.48956,5.42395 -26.76219,-15.79387 -26.76219,-15.79387 z" />
      <path
         id="rect2"
         style="fill:#0085ac;fill-opacity:1;stroke-width:0.271959"
         d="M -198.21427,-181.54345 V 461.47261 H 3.9026041 V 202.0688 c -16.3955311,-3.08304 -10.2663317,-15.57734 -10.2663317,-15.57734 0,0 10.2665208,-19.63742 -1.2829644,-50.35972 C -19.196178,105.40945 3.9026041,90.25599 3.9026041,90.25599 v -271.79944 z" />
      <path
         id="rect2-2"
         style="fill:#0085ac;fill-opacity:1;stroke-width:0.271232"
         d="M 506.79576,-179.59386 V 83.436612 c 0.26749,0.385845 13.33797,19.343078 9.25587,34.430008 -4.12411,15.24216 -7.84911,43.20825 2.92679,56.85992 9.89416,12.53462 -8.99174,19.51903 -12.18266,20.59038 V 464.6322 h 200.65919 v -644.22606 z" />
    </g>
  </g>
</svg>
