<?xml version="1.0" encoding="UTF-8" standalone="no"?>
<!-- Created with Inkscape (http://www.inkscape.org/) -->

<svg
   width="3013.2505"
   height="1781.911"
   viewBox="0 0 797.25589 471.46395"
   version="1.1"
   id="svg6282"
   inkscape:version="1.1.2 (0a00cf5339, 2022-02-04)"
   sodipodi:docname="1-collision.svg"
   xmlns:inkscape="http://www.inkscape.org/namespaces/inkscape"
   xmlns:sodipodi="http://sodipodi.sourceforge.net/DTD/sodipodi-0.dtd"
   xmlns="http://www.w3.org/2000/svg"
   xmlns:svg="http://www.w3.org/2000/svg">
  <sodipodi:namedview
     id="namedview6284"
     pagecolor="#ffffff"
     bordercolor="#666666"
     borderopacity="1.0"
     inkscape:pageshadow="2"
     inkscape:pageopacity="0.0"
     inkscape:pagecheckerboard="0"
     inkscape:document-units="px"
     showgrid="false"
     fit-margin-top="0"
     fit-margin-left="0"
     fit-margin-right="0"
     fit-margin-bottom="0"
     inkscape:zoom="1.5554293"
     inkscape:cx="1368.4325"
     inkscape:cy="283.20156"
     inkscape:window-width="2490"
     inkscape:window-height="1376"
     inkscape:window-x="70"
     inkscape:window-y="27"
     inkscape:window-maximized="1"
     inkscape:current-layer="layer1"
     units="px"
     inkscape:showpageshadow="2"
     inkscape:deskcolor="#d1d1d1" />
  <defs
     id="defs6279" />
  <g
     inkscape:label="Layer 1"
     inkscape:groupmode="layer"
     id="layer1"
     transform="translate(331.60729,161.90723)">
    <g
       id="g1">
      <path
         style="fill:#00c1c6;stroke-width:0.264443"
         d="M -186.97938,73.826011 V -69.050258 l 507.99435,-0.0036 0.007,122.195306 C 306.41646,53.673818 293.8872,52.832552 281.53406,58.250613 257.48052,62.021116 260.43958,37.408 267.53784,22.863287 267.14925,0.18680645 242.52794,7.1094191 231.40989,-1.4500709 c -7.7272,-11.7581311 -29.61848,-16.6712571 -28.84945,3.4095872 -2.14528,9.9643277 9.14289,38.0577507 -10.76585,28.0343917 -2.0691,-9.938178 6.62056,-21.1379043 -4.14498,-28.7620733 -11.36007,-2.22465768 -21.88153,1.4327129 -20.58682,14.6834583 3.86457,16.243153 -6.35222,45.759776 -24.25348,27.194096 5.05661,-10.305581 0.72624,-26.866737 -9.61642,-29.755782 -8.81366,11.890351 -27.97839,15.076955 -29.05218,26.37717 C 86.840152,42.856568 90.697619,32.173396 96.517819,22.195937 93.084698,7.3940592 97.41239,-10.403846 86.81609,-23.449176 72.139385,-37.120825 52.174763,-44.439535 32.32329,-46.323683 c -19.901377,-9.317154 -42.39738,-6.56146 -63.401156,-9.047332 -18.34214,0.553692 -37.481697,-2.725619 -55.427066,1.112091 -5.830002,-0.355253 -19.566598,-7.244022 -21.282508,5.22181 -15.66913,6.894143 -15.54344,27.105058 -20.2562,39.8065477 -10.60873,16.8723403 -13.74753,39.5099323 -2.58208,57.3424563 2.626,11.27184 -0.17994,26.992051 13.09677,36.330523 12.90681,9.629587 30.553688,7.728633 45.963948,10.150411 12.521934,-0.141751 25.297922,-7.629588 35.591694,-1.827585 11.062409,2.215501 23.82734,2.449497 31.3620547,8.115081 10.7917851,8.36534 6.1662616,15.2529 3.67391949,23.26603 -12.77427119,18.11794 -34.17262619,2.87296 -50.27325619,6.41474 -15.394608,1.23874 -35.136411,-9.25361 -45.907143,5.22573 -16.656227,10.50734 -19.139017,29.69833 -18.688327,47.98731 8.77038,15.8999 27.514171,12.3738 43.008685,15.23433 19.40721,6.13786 31.20308,-18.91392 48.830295,-2.13696 13.074619,-11.32329 29.327811,-13.29231 43.839073,-6.41575 9.242332,4.36754 9.272262,-20.11449 13.271416,-2.35477 6.244878,13.61438 19.192901,-1.36207 14.303147,-12.33042 C 42.989091,168.25318 43.706963,157.54702 35.38209,152.8606 21.558801,149.27257 25.354959,130.70997 20.060555,122.03995 19.832173,99.603813 48.849397,101.8855 53.6698,83.351222 c 6.927088,-7.834246 35.56521,-18.547299 38.214647,-2.291958 0.554596,18.815201 -9.906679,36.220566 -14.038753,54.552106 -1.981887,23.35237 35.552726,18.94299 38.061046,40.14169 3.12179,18.20773 24.7897,21.65338 38.45929,29.88527 17.25639,2.28827 34.17963,-2.39615 50.73193,-6.90938 1.12939,-10.99985 -5.5315,-25.68417 6.66018,-32.26548 6.76934,-15.95392 31.88442,-13.72591 40.46375,-28.50285 20.11566,2.99206 28.61604,-19.51507 9.40736,-28.06866 -2.74909,-10.42223 -11.38073,-23.005568 -4.17359,-29.863581 10.36955,2.412185 24.87455,1.029616 37.0515,2.905152 9.88983,-3.364212 26.39116,-3.576149 26.57508,11.890474 l -0.0648,121.886265 -507.99681,-0.0105 z"
         id="path6386"
         sodipodi:nodetypes="cccccccccccccccccccccccccccccccccccccccccccccccccccc" />
      <rect
         style="fill:#00c1c6;fill-opacity:1;stroke-width:0.278668"
         id="rect1"
         width="508"
         height="92.856972"
         x="-186.97939"
         y="-161.90723" />
      <rect
         style="fill:#00c1c6;fill-opacity:1;stroke-width:0.278668"
         id="rect1-4"
         width="508"
         height="92.856972"
         x="-186.97939"
         y="216.69975" />
      <rect
         style="fill:#00c1c6;fill-opacity:1;stroke-width:0.335041"
         id="rect1-2"
         width="144.62791"
         height="471.46396"
         x="-331.6073"
         y="-161.90723"
         inkscape:transform-center-x="2.0546442"
         inkscape:transform-center-y="170.99729" />
      <rect
         style="fill:#00c1c6;fill-opacity:1;stroke-width:0.335041"
         id="rect1-2-7"
         width="144.62791"
         height="471.46396"
         x="321.02063"
         y="-161.90723"
         inkscape:transform-center-x="2.0546442"
         inkscape:transform-center-y="170.99729" />
    </g>
  </g>
</svg>
