<?xml version="1.0" encoding="UTF-8" standalone="no"?>
<!-- Created with Inkscape (http://www.inkscape.org/) -->

<svg
   width="1920"
   height="1080"
   viewBox="0 0 507.99999 285.75001"
   version="1.1"
   id="svg4544"
   inkscape:version="1.1.2 (0a00cf5339, 2022-02-04)"
   sodipodi:docname="2-midground.svg"
   xmlns:inkscape="http://www.inkscape.org/namespaces/inkscape"
   xmlns:sodipodi="http://sodipodi.sourceforge.net/DTD/sodipodi-0.dtd"
   xmlns="http://www.w3.org/2000/svg"
   xmlns:svg="http://www.w3.org/2000/svg">
  <sodipodi:namedview
     id="namedview4546"
     pagecolor="#ffffff"
     bordercolor="#666666"
     borderopacity="1.0"
     inkscape:pageshadow="2"
     inkscape:pageopacity="0.0"
     inkscape:pagecheckerboard="0"
     inkscape:document-units="mm"
     showgrid="false"
     units="px"
     inkscape:zoom="0.77771465"
     inkscape:cx="882.0716"
     inkscape:cy="598.54858"
     inkscape:window-width="2490"
     inkscape:window-height="1376"
     inkscape:window-x="70"
     inkscape:window-y="27"
     inkscape:window-maximized="1"
     inkscape:current-layer="layer1" />
  <defs
     id="defs4541" />
  <g
     inkscape:label="Layer 1"
     inkscape:groupmode="layer"
     id="layer1">
    <g
       id="g4622">
      <path
         style="fill:#e7f9f6;stroke-width:0.264583"
         d="m 288.76757,202.07552 -0.50403,-0.59531 0.59531,0.50403 c 0.55944,0.47366 0.71575,0.68659 0.50404,0.68659 -0.0502,0 -0.31811,-0.26789 -0.59532,-0.59531 z m -2.50843,-2.51354 -0.64143,-0.72761 0.7276,0.64144 c 0.68006,0.59951 0.84894,0.81377 0.64143,0.81377 -0.0474,0 -0.37481,-0.32742 -0.7276,-0.7276 z m 133.32042,-5.00939 c 0.191,-0.0764 0.4192,-0.067 0.50712,0.0209 0.0879,0.0879 -0.0684,0.15045 -0.34726,0.13896 -0.30824,-0.0127 -0.37092,-0.0754 -0.15986,-0.15985 z m -4.51446,-0.25907 c 0.18191,-0.0734 0.47956,-0.0734 0.66146,0 0.1819,0.0734 0.0331,0.13345 -0.33073,0.13345 -0.3638,0 -0.51263,-0.0601 -0.33073,-0.13345 z m -10.30221,-0.27009 c 0.191,-0.0764 0.41921,-0.067 0.50713,0.0209 0.0879,0.0879 -0.0684,0.15046 -0.34727,0.13897 -0.30824,-0.0127 -0.37092,-0.0754 -0.15986,-0.15985 z m -13.75833,-1.5875 c 0.191,-0.0764 0.4192,-0.067 0.50712,0.0209 0.0879,0.0879 -0.0684,0.15046 -0.34726,0.13897 -0.30824,-0.0127 -0.37092,-0.0754 -0.15986,-0.15985 z m -116.40082,-6.3677 c -0.32909,-0.41965 -0.31975,-0.429 0.0999,-0.0999 0.25466,0.19972 0.46302,0.40808 0.46302,0.46302 0,0.21777 -0.21728,0.0776 -0.56293,-0.36312 z m 106.3625,-3.96875 c -0.32909,-0.41965 -0.31975,-0.429 0.0999,-0.0999 0.25466,0.19972 0.46302,0.40808 0.46302,0.46302 0,0.21777 -0.21728,0.0776 -0.56293,-0.36312 z m -148.3766,-2.86632 c 0.0127,-0.30823 0.0754,-0.37092 0.15985,-0.15985 0.0764,0.19099 0.067,0.4192 -0.0209,0.50712 -0.0879,0.0879 -0.15045,-0.0684 -0.13896,-0.34727 z m 236.20242,-12.99098 c 0.191,-0.0764 0.4192,-0.067 0.50712,0.0209 0.0879,0.0879 -0.0684,0.15046 -0.34726,0.13897 -0.30824,-0.0127 -0.37092,-0.0754 -0.15986,-0.15985 z m 12.17083,0 c 0.191,-0.0764 0.41921,-0.067 0.50713,0.0209 0.0879,0.0879 -0.0684,0.15046 -0.34727,0.13897 -0.30824,-0.0127 -0.37092,-0.0754 -0.15986,-0.15985 z m -342.10625,-31.75 c 0.191,-0.0764 0.4192,-0.067 0.50712,0.0209 0.0879,0.0879 -0.0684,0.15046 -0.34727,0.13897 -0.30822,-0.0127 -0.37092,-0.0754 -0.15985,-0.15985 z m -3.43958,-0.26459 c 0.19099,-0.0764 0.4192,-0.067 0.50712,0.0209 0.0879,0.0879 -0.0684,0.15045 -0.34727,0.13896 -0.30823,-0.0127 -0.37092,-0.0754 -0.15985,-0.15985 z m 62.33384,-0.41457 -0.50403,-0.59531 0.59532,0.50403 c 0.32742,0.27721 0.59531,0.5451 0.59531,0.59531 0,0.21173 -0.21293,0.0554 -0.6866,-0.50403 z m -20.17371,-6.01927 c 0,-0.3638 0.0601,-0.51263 0.13345,-0.33073 0.0734,0.1819 0.0734,0.47956 0,0.66146 -0.0734,0.1819 -0.13345,0.0331 -0.13345,-0.33073 z m -75.87004,-1.12448 -0.50403,-0.59531 0.59532,0.50403 c 0.32742,0.27721 0.59531,0.5451 0.59531,0.59531 0,0.21173 -0.21293,0.0554 -0.6866,-0.50403 z m 12.30824,-0.92604 -0.64143,-0.7276 0.7276,0.64143 c 0.68006,0.59951 0.84894,0.81377 0.64143,0.81377 -0.0474,0 -0.37481,-0.32742 -0.7276,-0.7276 z M 107.95,125.3126 c 0,-0.0549 0.20836,-0.2633 0.46302,-0.46302 0.41965,-0.3291 0.429,-0.31975 0.0999,0.0999 -0.34565,0.44073 -0.56292,0.58089 -0.56292,0.36312 z M 80.912891,113.32551 c 0.190994,-0.0764 0.4192,-0.067 0.507119,0.0209 0.08792,0.0879 -0.06835,0.15045 -0.347266,0.13896 -0.308226,-0.0127 -0.370919,-0.0754 -0.159853,-0.15985 z m 3.175,-0.26458 c 0.190994,-0.0764 0.4192,-0.067 0.507119,0.0209 0.08792,0.0879 -0.06835,0.15046 -0.347266,0.13897 -0.308226,-0.0127 -0.370919,-0.0754 -0.159853,-0.15985 z"
         id="path4636" />
      <path
         style="fill:#d9f6f1;stroke-width:0.264583"
         d="m 340.30573,210.21146 c 0.005,-0.43656 0.0647,-0.58313 0.13179,-0.3257 0.0671,0.25744 0.0627,0.61462 -0.01,0.79375 -0.0725,0.17914 -0.12734,-0.0315 -0.12197,-0.46805 z m 81.46098,-14.04497 c 0.0127,-0.30822 0.0754,-0.37092 0.15986,-0.15985 0.0764,0.191 0.067,0.4192 -0.0209,0.50712 -0.0879,0.0879 -0.15047,-0.0683 -0.13899,-0.34727 z m -7.47882,-1.87848 c 0.191,-0.0764 0.41921,-0.067 0.50713,0.0209 0.0879,0.0879 -0.0684,0.15045 -0.34727,0.13896 -0.30824,-0.0127 -0.37092,-0.0754 -0.15986,-0.15985 z m -24.07708,-1.85208 c 0.191,-0.0764 0.4192,-0.067 0.50712,0.0209 0.0879,0.0879 -0.0684,0.15046 -0.34726,0.13897 -0.30824,-0.0127 -0.37092,-0.0754 -0.15986,-0.15985 z m -20.37292,-11.37709 c 0.191,-0.0764 0.41921,-0.067 0.50713,0.0209 0.0879,0.0879 -0.0684,0.15045 -0.34727,0.13896 -0.30824,-0.0127 -0.37092,-0.0754 -0.15986,-0.15985 z m -157.57088,-9.26303 c 0.25744,-0.0671 0.61462,-0.0627 0.79375,0.01 0.17914,0.0725 -0.0315,0.12736 -0.46805,0.12197 -0.43656,-0.005 -0.58313,-0.0647 -0.3257,-0.13177 z m 267.49375,-5.55625 c 0.25744,-0.0671 0.61462,-0.0627 0.79375,0.01 0.17915,0.0725 -0.0315,0.12736 -0.46805,0.12197 -0.43656,-0.005 -0.58312,-0.0647 -0.3257,-0.13177 z M 177.57719,128.85208 c 0,-0.3638 0.0601,-0.51263 0.13345,-0.33073 0.0734,0.18191 0.0734,0.47956 0,0.66146 -0.0734,0.1819 -0.13345,0.0331 -0.13345,-0.33073 z"
         id="path4634" />
      <path
         style="fill:#c7f3eb;stroke-width:0.264583"
         d="m 413.08576,194.2854 c 0.25744,-0.0671 0.61462,-0.0627 0.79375,0.01 0.17915,0.0725 -0.0315,0.12736 -0.46805,0.12197 -0.43656,-0.005 -0.58312,-0.0647 -0.3257,-0.13177 z m 57.01268,-28.03771 c 0.1819,-0.0734 0.47955,-0.0734 0.66146,0 0.1819,0.0734 0.0331,0.13345 -0.33073,0.13345 -0.36381,0 -0.51263,-0.06 -0.33073,-0.13345 z m 8.06979,-0.007 c 0.25466,-0.0666 0.67138,-0.0666 0.92604,0 0.25466,0.0666 0.0463,0.121 -0.46302,0.121 -0.50932,0 -0.71768,-0.0545 -0.46302,-0.121 z m -300.56609,-35.9334 c 0.003,-0.58208 0.0571,-0.78905 0.12041,-0.45993 0.0633,0.32911 0.0609,0.80536 -0.005,1.05833 -0.0662,0.25296 -0.118,-0.0163 -0.11507,-0.5984 z"
         id="path4632" />
      <path
         style="fill:#b9f0e6;stroke-width:0.264583"
         d="m 421.80722,197.90833 c 0,-0.50932 0.0545,-0.71768 0.12099,-0.46302 0.0666,0.25466 0.0666,0.67138 0,0.92604 -0.0665,0.25467 -0.12099,0.0463 -0.12099,-0.46302 z m 15.09194,-2.91041 c 0,-0.65485 0.0516,-0.92274 0.11464,-0.59532 0.0631,0.32743 0.0631,0.86321 0,1.19063 -0.063,0.32742 -0.11464,0.0595 -0.11464,-0.59531 z m -25.00906,-0.7044 c 0.18191,-0.0734 0.47956,-0.0734 0.66146,0 0.1819,0.0734 0.0331,0.13345 -0.33073,0.13345 -0.3638,0 -0.51263,-0.0601 -0.33073,-0.13345 z m -40.72929,-13.23468 c 0.191,-0.0764 0.4192,-0.067 0.50712,0.0209 0.0879,0.0879 -0.0684,0.15045 -0.34726,0.13896 -0.30824,-0.0127 -0.37092,-0.0754 -0.15986,-0.15985 z m 101.45117,-14.83213 c 0.98226,-0.0509 2.58961,-0.0509 3.57187,0 0.98227,0.0509 0.1786,0.0926 -1.78593,0.0926 -1.96453,0 -2.76821,-0.0416 -1.78594,-0.0926 z M 177.587,131.89479 c 0.005,-0.43656 0.0647,-0.58312 0.13177,-0.32569 0.0671,0.25743 0.0627,0.61462 -0.01,0.79375 -0.0725,0.17913 -0.12736,-0.0315 -0.12197,-0.46806 z M 89.114974,112.79634 c 0.190995,-0.0764 0.4192,-0.067 0.507119,0.0209 0.08792,0.0879 -0.06835,0.15045 -0.347266,0.13896 -0.308226,-0.0127 -0.370919,-0.0754 -0.159853,-0.15985 z"
         id="path4630" />
      <path
         style="fill:#aaede1;stroke-width:0.264583"
         d="m 407.65677,194.27369 c 0.76399,-0.0534 2.01414,-0.0534 2.77813,0 0.76398,0.0534 0.1389,0.0972 -1.38907,0.0972 -1.52797,0 -2.15304,-0.0437 -1.38906,-0.0972 z m -135.71471,-9.77526 c 0.191,-0.0764 0.4192,-0.067 0.50712,0.0209 0.0879,0.0879 -0.0684,0.15046 -0.34726,0.13897 -0.30824,-0.0127 -0.37092,-0.0754 -0.15986,-0.15985 z m 100.13328,-3.4422 c 0.25744,-0.0671 0.61463,-0.0627 0.79375,0.01 0.17915,0.0725 -0.0315,0.12736 -0.46805,0.12197 -0.43656,-0.005 -0.58311,-0.0647 -0.3257,-0.13178 z m 5.17088,0.003 c 0.19101,-0.0764 0.41921,-0.067 0.50713,0.0209 0.0879,0.0879 -0.0684,0.15045 -0.34726,0.13897 -0.30824,-0.0127 -0.37092,-0.0754 -0.15987,-0.15986 z m 53.78091,-1.03194 c 0.0127,-0.30822 0.0754,-0.37092 0.15986,-0.15985 0.0764,0.19099 0.067,0.4192 -0.0209,0.50712 -0.0879,0.0879 -0.15046,-0.0684 -0.13898,-0.34727 z m 2.88954,-5.23725 c 0,-0.0549 0.20836,-0.2633 0.46302,-0.46302 0.41965,-0.32911 0.42899,-0.31975 0.0999,0.0999 -0.34565,0.44073 -0.56292,0.58089 -0.56292,0.36313 z M 171.65318,137.92075 c 0.47555,-0.0589 1.18992,-0.0577 1.5875,0.003 0.39757,0.0604 0.008,0.10855 -0.86464,0.10706 -0.87312,-0.002 -1.19841,-0.0509 -0.72286,-0.10976 z m 5.90313,-4.98967 c 0.0127,-0.30823 0.0754,-0.37092 0.15985,-0.15986 0.0764,0.191 0.067,0.4192 -0.0209,0.50712 -0.0879,0.0879 -0.15045,-0.0683 -0.13896,-0.34726 z M 89.908724,112.79634 c 0.190995,-0.0764 0.4192,-0.067 0.507119,0.0209 0.08792,0.0879 -0.06835,0.15045 -0.347266,0.13896 -0.308226,-0.0127 -0.370919,-0.0754 -0.159853,-0.15985 z"
         id="path4628" />
      <path
         style="fill:#a3ecde;stroke-width:0.264583"
         d="m 288.11122,201.67865 -0.64143,-0.72761 0.72761,0.64143 c 0.40018,0.35279 0.7276,0.68022 0.7276,0.72761 0,0.20751 -0.21426,0.0386 -0.81378,-0.64143 z m -1.60123,-1.5875 c -0.32909,-0.41965 -0.31975,-0.42901 0.0999,-0.0999 0.25466,0.19972 0.46302,0.40808 0.46302,0.46302 0,0.21776 -0.21728,0.0776 -0.56293,-0.36312 z m 86.75095,-19.02679 c 0.1819,-0.0734 0.47955,-0.0734 0.66146,0 0.1819,0.0734 0.0331,0.13345 -0.33073,0.13345 -0.36381,0 -0.51263,-0.0601 -0.33073,-0.13345 z m 3.19153,-0.006 c 0.19101,-0.0764 0.41921,-0.067 0.50713,0.0209 0.0879,0.0879 -0.0684,0.15045 -0.34726,0.13896 -0.30824,-0.0127 -0.37092,-0.0754 -0.15987,-0.15985 z m -262.57448,-55.18333 -0.50403,-0.59531 0.59531,0.50403 c 0.32742,0.27721 0.59531,0.5451 0.59531,0.59531 0,0.21173 -0.21293,0.0554 -0.68659,-0.50403 z M 90.818229,112.7947 c 0.254662,-0.0666 0.67138,-0.0666 0.926042,0 0.254661,0.0665 0.0463,0.121 -0.463021,0.121 -0.509323,0 -0.717682,-0.0545 -0.463021,-0.121 z"
         id="path4626" />
      <path
         style="fill:#96eada;stroke-width:0.264583"
         d="m 0,210.25124 v -75.49876 l 4.9609375,-1.53195 c 8.8931965,-2.74625 13.8299375,-4.35011 21.6296875,-7.02708 9.686131,-3.3244 12.83199,-4.25877 22.56567,-6.70233 13.783106,-3.46015 23.716379,-5.2432 33.984379,-6.10032 5.899211,-0.49242 10.23587,-0.53266 11.177334,-0.1037 0.943779,0.43001 1.558848,1.54357 2.386245,4.32019 1.421344,4.76982 3.906027,8.79831 6.271157,10.16761 0.89659,0.51909 1.05168,0.53498 1.85208,0.18978 0.48045,-0.20721 1.91859,-1.28232 3.19586,-2.38913 2.71417,-2.35194 3.51462,-2.91193 3.85851,-2.69939 0.13803,0.0853 0.60495,0.78018 1.03758,1.54416 0.85152,1.50367 1.91629,2.45327 4.48711,4.00177 1.47248,0.88694 3.02176,1.56864 10.04164,4.41844 2.30976,0.93768 5.41015,1.43104 12.3841,1.97067 5.29721,0.40988 11.69509,1.09528 22.35729,2.39511 6.51709,0.7945 12.98291,0.98963 13.97917,0.42187 1.12047,-0.63854 1.42685,-1.93999 1.56772,-6.65943 0.0717,-2.40109 0.24485,-4.58578 0.38485,-4.85487 0.34469,-0.66253 0.88882,-0.56433 7.08701,1.27893 2.83766,0.84388 5.97329,1.69534 6.96806,1.89212 0.99478,0.19679 1.92177,0.42768 2.05998,0.5131 0.13821,0.0854 0.73396,0.91956 1.32389,1.85364 0.58993,0.93408 1.16685,1.69833 1.28206,1.69833 0.38055,0 1.91664,1.70534 2.26407,2.51354 0.36429,0.84741 1.28241,7.09314 2.37252,16.13958 1.46382,12.14772 3.09522,18.59436 5.14122,20.31595 1.02942,0.8662 1.12338,0.86976 3.77419,0.1433 l 2.0986,-0.57513 3.75406,0.70549 c 2.06473,0.38802 5.00422,0.88692 6.53219,1.10867 1.52797,0.22174 3.67109,0.5325 4.7625,0.69057 1.0914,0.15808 2.36872,0.4466 2.83847,0.64117 1.12765,0.46706 1.86206,1.73304 2.05546,3.54316 0.0865,0.80996 0.32687,2.84188 0.53407,4.51537 0.20719,1.67349 0.55893,4.83937 0.78165,7.03528 0.47116,4.64557 1.11989,7.41583 2.29611,9.80508 1.42521,2.895 4.78324,6.12433 8.73744,8.40256 l 1.23592,0.71208 4.97711,-7.3551 4.97711,-7.35511 4.10572,-3.08805 c 6.50828,-4.89508 9.55908,-6.56924 11.97102,-6.56924 1.28567,0 1.51927,0.22446 7.1591,6.87916 10.4906,12.37833 11.62383,13.34201 22.59827,19.21716 6.25457,3.34837 9.00708,4.98509 11.80759,7.02108 1.76713,1.28471 4.68455,2.87273 5.99996,3.26591 0.3638,0.10875 1.22303,0.47996 1.90944,0.82491 0.68638,0.34496 1.2968,0.62719 1.35647,0.62719 0.27844,0 1.23221,-2.71896 1.46857,-4.18653 0.31583,-1.96113 0.41494,-2.15112 1.03732,-1.98837 0.5157,0.13486 6.6606,-1.44731 11.82299,-3.04413 l 3.175,-0.98209 0.19201,-2.37392 c 0.17457,-2.15848 0.13483,-2.50598 -0.43792,-3.82912 -0.34647,-0.80037 -0.84428,-2.73713 -1.10624,-4.30393 -0.56431,-3.37481 -0.72316,-3.07917 2.80736,-5.22529 3.43762,-2.08966 3.96875,-2.54954 3.96875,-3.43638 0,-0.42231 -0.13872,-1.07227 -0.30824,-1.44436 -0.3833,-0.84122 0.0442,-1.34792 3.05654,-3.6232 4.019,-3.03557 9.8448,-5.30263 15.90482,-6.1892 6.05928,-0.88645 14.13923,-0.98081 15.62142,-0.18243 1.41801,0.76382 2.89846,3.60441 3.56381,6.83801 0.1765,0.85771 0.43061,1.76746 0.5647,2.02164 0.4155,0.78764 2.1086,1.44203 4.59174,1.77473 1.30969,0.17547 3.20905,0.43339 4.22079,0.57315 1.01177,0.13976 2.89338,0.55729 4.1814,0.92783 2.09047,0.60142 2.48094,0.64036 3.63799,0.36279 0.71289,-0.17103 1.41938,-0.23479 1.56998,-0.14171 0.15061,0.0931 4.32639,0.27957 9.2795,0.41442 4.9531,0.13486 9.22231,0.36116 9.48716,0.50289 0.40439,0.21642 0.50874,0.73379 0.65159,3.23038 0.0935,1.63498 0.27512,3.07771 0.40347,3.20608 0.1348,0.1348 1.95246,-0.17197 4.30283,-0.72619 2.23819,-0.52777 5.31961,-1.25414 6.84758,-1.61416 1.52797,-0.36002 2.92383,-0.74524 3.10192,-0.85605 0.58621,-0.36475 0.71017,-3.7192 0.22577,-6.10977 -0.65614,-3.23815 -1.30408,-4.73461 -3.47662,-8.02948 -2.23433,-3.38855 -2.39496,-4.14111 -1.32827,-6.22284 1.56589,-3.05591 4.47456,-5.29371 8.62095,-6.63255 3.86032,-1.24647 11.6641,-2.74004 20.50521,-3.9245 3.93991,-0.52784 6.58241,-0.70204 12.21877,-0.80548 8.95628,-0.16437 11.6844,0.10124 14.7119,1.43235 3.08692,1.35725 7.5698,2.172 16.65943,3.02782 L 508,171.27261 V 228.5113 285.75 H 254 0 Z"
         id="path4624" />
    </g>
  </g>
</svg>
